<svg xmlns="http://www.w3.org/2000/svg"><defs><path d="M5.41 26.71c.52.407 1.18.267 1.967-.304l6.716-4.938 6.729 4.938c.787.572 1.434.711 1.967.305.52-.394.635-1.041.318-1.968l-2.654-7.896 6.78-4.875c.787-.559 1.104-1.143.901-1.778-.203-.609-.8-.914-1.777-.901l-8.316.05-2.526-7.934C15.21.47 14.753 0 14.093 0c-.647 0-1.104.47-1.41 1.41l-2.525 7.934-8.316-.051c-.977-.013-1.574.292-1.777.901-.216.635.114 1.22.901 1.778l6.78 4.875-2.654 7.896c-.317.927-.203 1.574.317 1.968z" fill="#FFD600" id="star"/><path fill-rule="evenodd" clip-rule="evenodd" d="M25.44 30.473c-2.227-1.29-2.227-4.512 0-5.801L47.989 11.62c2.227-1.29 5.011.322 5.011 2.9v26.104c0 2.578-2.784 4.19-5.011 2.9l-22.55-13.051zm-23.765 0c-2.233-1.29-2.233-4.512 0-5.801l15.07-8.702c2.233-1.289 5.024.323 5.024 2.9v17.403c0 2.579-2.79 4.19-5.023 2.9l-15.071-8.7z" fill="#fff" id="player-arrow-prev"/><path d="M7.148 4.268H12.5c1.042 0 1.895.835 1.895 1.856 0 1.021-.853 1.857-1.895 1.857H7.148v3.322c0 .835-1.024 1.244-1.61.65L.27 6.774a.94.94 0 010-1.318L5.537.277c.587-.594 1.61-.167 1.61.65v3.341z" fill="#fff" id="lesson-arrow-prev"/><path d="M7.852 8.732H2.5c-1.042 0-1.895-.835-1.895-1.856 0-1.021.853-1.857 1.895-1.857h5.352V1.697c0-.835 1.024-1.244 1.61-.65l5.268 5.179a.94.94 0 010 1.318l-5.267 5.179c-.587.594-1.61.167-1.61-.65V8.732z" fill="#fff" id="lesson-arrow-next"/><path d="M9 2h6a1 1 0 100-2H9a1 1 0 000 2zm3 2a12 12 0 1012 12A12.013 12.013 0 0012 4zm5.657 7.757l-4.95 4.95a1 1 0 01-1.414-1.414l4.95-4.95a1 1 0 011.414 1.414z" id="timer" fill="#39D7D7"/><path d="M27.56 24.672c2.227 1.29 2.227 4.512 0 5.8L5.011 43.526C2.784 44.814 0 43.203 0 40.625V14.52c0-2.578 2.784-4.189 5.011-2.9l22.55 13.052zm23.765 0c2.233 1.29 2.233 4.512 0 5.801l-15.07 8.701c-2.233 1.29-5.024-.322-5.024-2.9V18.87c0-2.578 2.79-4.19 5.023-2.9l15.071 8.701z" id="player-arrow-next" fill="#fff"/><g id="lesson-arrow-list" fill="#fff"><circle cx="1.5" cy="1.849" r="1.5"/><circle cx="1.5" cy="7.849" r="1.5"/><circle cx="1.5" cy="13.849" r="1.5"/><rect x="5" y=".349" width="13" height="3" rx="1.5"/><rect x="5" y="6.349" width="13" height="3" rx="1.5"/><rect x="5" y="12.349" width="13" height="3" rx="1.5"/></g><g id="lesson-arrow-list-close" fill="#2A2A2A"><rect x="3.051" y=".222" width="18" height="4" rx="2" transform="rotate(45 3.05 .222)"/><rect x="15.777" y="3.05" width="18" height="4" rx="2" transform="rotate(135 15.777 3.05)"/></g></defs></svg>