<svg xmlns="http://www.w3.org/2000/svg"><defs><path d="M5.41 26.71c.52.407 1.18.267 1.967-.304l6.716-4.938 6.729 4.938c.787.572 1.434.711 1.967.305.52-.394.635-1.041.318-1.968l-2.654-7.896 6.78-4.875c.787-.559 1.104-1.143.901-1.778-.203-.609-.8-.914-1.777-.901l-8.316.05-2.526-7.934C15.21.47 14.753 0 14.093 0c-.647 0-1.104.47-1.41 1.41l-2.525 7.934-8.316-.051c-.977-.013-1.574.292-1.777.901-.216.635.114 1.22.901 1.778l6.78 4.875-2.654 7.896c-.317.927-.203 1.574.317 1.968z" fill="#FFD600" id="star"/><path fill-rule="evenodd" clip-rule="evenodd" d="M25.44 30.473c-2.227-1.29-2.227-4.512 0-5.801L47.989 11.62c2.227-1.29 5.011.322 5.011 2.9v26.104c0 2.578-2.784 4.19-5.011 2.9l-22.55-13.051zm-23.765 0c-2.233-1.29-2.233-4.512 0-5.801l15.07-8.702c2.233-1.289 5.024.323 5.024 2.9v17.403c0 2.579-2.79 4.19-5.023 2.9l-15.071-8.7z" fill="#fff" id="player-arrow-prev"/><path d="M7.148 4.268H12.5c1.042 0 1.895.835 1.895 1.856 0 1.021-.853 1.857-1.895 1.857H7.148v3.322c0 .835-1.024 1.244-1.61.65L.27 6.774a.94.94 0 010-1.318L5.537.277c.587-.594 1.61-.167 1.61.65v3.341z" fill="#fff" id="lesson-arrow-prev"/><path d="M7.852 8.732H2.5c-1.042 0-1.895-.835-1.895-1.856 0-1.021.853-1.857 1.895-1.857h5.352V1.697c0-.835 1.024-1.244 1.61-.65l5.268 5.179a.94.94 0 010 1.318l-5.267 5.179c-.587.594-1.61.167-1.61-.65V8.732z" fill="#fff" id="lesson-arrow-next"/><path fill-rule="evenodd" clip-rule="evenodd" d="M15.533.106a5.234 5.234 0 015.239 5.227v8.177c0 2.888-2.35 5.227-5.239 5.227H5.308A5.234 5.234 0 01.07 13.51V5.333A5.227 5.227 0 015.308.106h10.225zm1.647 6.77l.083-.084a.8.8 0 00-.012-1.035.87.87 0 00-.547-.269.787.787 0 00-.58.207l-4.668 3.727c-.6.497-1.46.497-2.07 0L4.728 5.695a.788.788 0 00-1.035.073.79.79 0 00-.073 1.035l.135.134 4.71 3.675a3.256 3.256 0 004.046 0l4.67-3.737z" fill="#39D7D7" id="message"/><path fill-rule="evenodd" clip-rule="evenodd" d="M9.938 11.007c4.13 4.127 5.066-.648 7.695 1.979 2.534 2.534 3.991 3.041.78 6.252-.402.323-2.958 4.212-11.94-4.767-8.982-8.98-5.095-11.538-4.772-11.94 3.22-3.22 3.718-1.754 6.253.78 2.629 2.628-2.145 3.568 1.984 7.696z" fill="#39D7D7" id="telephone"/><path d="M4.356 3.04h11.01c.55 0 1 .45 1 1s-.45 1-1 1H4.356v1.79c0 .45-.54.67-.85.35L.726 4.39a.513.513 0 010-.71L3.506.89c.31-.32.85-.09.85.35v1.8z" fill="#195AFF" id="back-arrow"/><path d="M9 2h6a1 1 0 100-2H9a1 1 0 000 2zm3 2a12 12 0 1012 12A12.013 12.013 0 0012 4zm5.657 7.757l-4.95 4.95a1 1 0 01-1.414-1.414l4.95-4.95a1 1 0 011.414 1.414z" id="timer" fill="#39D7D7"/><path d="M27.56 24.672c2.227 1.29 2.227 4.512 0 5.8L5.011 43.526C2.784 44.814 0 43.203 0 40.625V14.52c0-2.578 2.784-4.189 5.011-2.9l22.55 13.052zm23.765 0c2.233 1.29 2.233 4.512 0 5.801l-15.07 8.701c-2.233 1.29-5.024-.322-5.024-2.9V18.87c0-2.578 2.79-4.19 5.023-2.9l15.071 8.701z" id="player-arrow-next" fill="#fff"/><g id="lesson-arrow-list" fill="#fff"><circle cx="1.5" cy="1.849" r="1.5"/><circle cx="1.5" cy="7.849" r="1.5"/><circle cx="1.5" cy="13.849" r="1.5"/><rect x="5" y=".349" width="13" height="3" rx="1.5"/><rect x="5" y="6.349" width="13" height="3" rx="1.5"/><rect x="5" y="12.349" width="13" height="3" rx="1.5"/></g><g id="lesson-arrow-list-close" fill="#2A2A2A"><rect x="3.051" y=".222" width="18" height="4" rx="2" transform="rotate(45 3.05 .222)"/><rect x="15.777" y="3.05" width="18" height="4" rx="2" transform="rotate(135 15.777 3.05)"/></g><g id="license" fill="#39D7D7"><path d="M11.534 22.078l2.958-.793a.378.378 0 00.236-.19l4.237-7.338c2.057.046 4.074-1 5.173-2.902A5.796 5.796 0 0022.02 2.91a5.82 5.82 0 00-7.952 2.13 5.845 5.845 0 00.02 5.865l-.925 1.603c-.141.245-.072.846.008 1.273a.638.638 0 01-.387.7l-.908.382a.382.382 0 00-.19.453l.225.836a.379.379 0 01-.046.3l-.597 1.032a.451.451 0 01-.236.19l-.621.166a.398.398 0 00-.283.49l.925 3.45c.05.228.267.354.481.297zm6.1-16.464a2.451 2.451 0 013.343-.896 2.451 2.451 0 01.896 3.344 2.451 2.451 0 01-3.344.896 2.451 2.451 0 01-.896-3.344z"/><path fill-rule="evenodd" clip-rule="evenodd" d="M6.5 8.5a1.5 1.5 0 10-3 0v2h-2a1.5 1.5 0 000 3h2v2a1.5 1.5 0 003 0v-2h2a1.5 1.5 0 000-3h-2v-2z"/></g><g id="agreement"><path fill-rule="evenodd" clip-rule="evenodd" d="M2.045.84C1.192.84.5 1.532.5 2.385v14.682c0 .854.692 1.546 1.545 1.546h10.819c.853 0 1.545-.692 1.545-1.546V2.385c0-.853-.692-1.545-1.545-1.545H2.045zm.773 2.318a.773.773 0 000 1.545h9.273a.773.773 0 100-1.545H2.818zm-.773 4.636c0-.426.346-.772.773-.772h9.273a.773.773 0 110 1.545H2.818a.773.773 0 01-.773-.773zm.773 3.091a.773.773 0 000 1.546h9.273a.773.773 0 100-1.546H2.818z" fill="#C9C9C9"/><mask id="path-2-outside-1_7301_10553" maskUnits="userSpaceOnUse" x="5.455" y="8.113" width="14" height="14" fill="#000"><path fill="#fff" d="M5.455 8.113h14v14h-14z"/><path fill-rule="evenodd" clip-rule="evenodd" d="M12.478 20.158a5.023 5.023 0 100-10.045 5.023 5.023 0 000 10.045zm-.749-1.725a.599.599 0 00.053-.075l.027-.03 3.998-4.852a.708.708 0 000-.866.445.445 0 00-.713 0l-3.725 4.52-1.507-1.828a.445.445 0 00-.714 0 .708.708 0 000 .866l1.867 2.265c.197.24.517.24.714 0z"/></mask><path fill-rule="evenodd" clip-rule="evenodd" d="M12.478 20.158a5.023 5.023 0 100-10.045 5.023 5.023 0 000 10.045zm-.749-1.725a.599.599 0 00.053-.075l.027-.03 3.998-4.852a.708.708 0 000-.866.445.445 0 00-.713 0l-3.725 4.52-1.507-1.828a.445.445 0 00-.714 0 .708.708 0 000 .866l1.867 2.265c.197.24.517.24.714 0z" fill="#C9C9C9"/><path d="M11.782 18.358l-1.1-1.086-.133.135-.096.162 1.33.789zm-.053.075l1.193.983-1.193-.983zm.08-.105l1.193.982-1.193-.982zm3.998-4.852L17 14.46l-1.193-.983zm0-.866L17 11.627l-1.193.983zm-.713 0l-1.193-.983 1.193.983zm-3.725 4.52l-1.193.983 1.193 1.447 1.192-1.447-1.192-.983zm-1.507-1.828l1.193-.983-1.193.983zm-.714 0l1.193.982-1.193-.982zm0 .866l1.193-.983-1.193.983zm1.867 2.265l-1.192.983 1.192-.983zm4.94-3.298a3.477 3.477 0 01-3.477 3.478v3.09a6.568 6.568 0 006.568-6.568h-3.09zm-3.477-3.477a3.477 3.477 0 013.477 3.477h3.091a6.568 6.568 0 00-6.568-6.568v3.091zM9 15.135a3.477 3.477 0 013.477-3.477v-3.09a6.568 6.568 0 00-6.568 6.567H9zm3.477 3.478A3.477 3.477 0 019 15.135H5.91a6.568 6.568 0 006.568 6.568v-3.09zm-2.025-1.044a.94.94 0 01.084-.119l2.385 1.966c.071-.087.134-.177.19-.27l-2.659-1.577zm.164-.224a.872.872 0 01.065-.073l2.2 2.17a1.98 1.98 0 00.12-.132l-2.385-1.965zm3.998-4.852l-3.998 4.852 2.385 1.965L17 14.46l-2.385-1.966zm0 1.1a.865.865 0 01-.205-.55c0-.152.045-.356.205-.55L17 14.46a2.252 2.252 0 000-2.832l-2.385 1.966zm1.671 0c-.17.207-.466.383-.836.383-.369 0-.665-.176-.835-.383L17 11.627a2.007 2.007 0 00-1.55-.742c-.627 0-1.181.296-1.549.742l2.385 1.966zm-3.725 4.52l3.725-4.52-2.385-1.966-3.725 4.52 2.385 1.966zm-3.89-1.829l1.507 1.829 2.385-1.966-1.506-1.828-2.386 1.965zm1.672 0a1.08 1.08 0 01-.836.384c-.37 0-.665-.176-.836-.384l2.386-1.965a2.007 2.007 0 00-1.55-.742c-.628 0-1.182.296-1.55.742l2.386 1.965zm0-1.1c.16.194.205.399.205.55a.864.864 0 01-.205.55L7.956 14.32a2.252 2.252 0 000 2.831l2.385-1.965zm1.867 2.266l-1.867-2.265-2.385 1.965 1.867 2.266 2.385-1.966zm-1.671 0c.17-.207.466-.383.835-.383.37 0 .665.176.836.383l-2.385 1.966c.368.446.921.742 1.55.742.627 0 1.181-.296 1.549-.742l-2.386-1.966z" fill="#292F34" mask="url(#path-2-outside-1_7301_10553)"/></g></defs></svg>