<svg xmlns="http://www.w3.org/2000/svg"><defs><path d="M5.41 26.71c.52.407 1.18.267 1.967-.304l6.716-4.938 6.729 4.938c.787.572 1.434.711 1.967.305.52-.394.635-1.041.318-1.968l-2.654-7.896 6.78-4.875c.787-.559 1.104-1.143.901-1.778-.203-.609-.8-.914-1.777-.901l-8.316.05-2.526-7.934C15.21.47 14.753 0 14.093 0c-.647 0-1.104.47-1.41 1.41l-2.525 7.934-8.316-.051c-.977-.013-1.574.292-1.777.901-.216.635.114 1.22.901 1.778l6.78 4.875-2.654 7.896c-.317.927-.203 1.574.317 1.968z" fill="#FFD600" id="star"/><path d="M9 2h6a1 1 0 100-2H9a1 1 0 000 2zm3 2a12 12 0 1012 12A12.013 12.013 0 0012 4zm5.657 7.757l-4.95 4.95a1 1 0 01-1.414-1.414l4.95-4.95a1 1 0 011.414 1.414z" id="timer" fill="#39D7D7"/></defs></svg>