<svg xmlns="http://www.w3.org/2000/svg"><defs><g id="icon_menu"><circle cx="20" cy="20.26" r="20" fill="#F8F8F8"/><rect x="10.5" y="12.506" width="19" height="2" rx="1" fill="#00B300"/><rect x="15.146" y="18.76" width="14.354" height="2" rx="1" fill="#00B300"/><rect x="10.5" y="25.014" width="19" height="2" rx="1" fill="#00B300"/></g><g id="icon_start" fill="#fff"><path d="M22.567 5.465L11.785.793a.718.718 0 00-.571 0L.432 5.465c-.579.25-.573 1.072 0 1.32l10.782 4.671c.18.08.388.08.571 0l7.621-3.302v7.654c0 .387.298.72.684.739a.72.72 0 00.754-.719V7.894a.224.224 0 00-.196-.222l-9.24-1.193a.72.72 0 01.133-1.43c.032.002 10.275 1.324 10.267 1.323a.542.542 0 01.425.313c.052.116.187.17.303.115.193-.09.36-.21.437-.48a.718.718 0 00-.406-.854z"/><path d="M10.642 12.775l-6.017-2.607a.225.225 0 00-.314.207v2.578c0 2.419 3.158 4.313 7.188 4.313 4.03 0 7.188-1.894 7.188-4.313v-2.579a.225.225 0 00-.314-.206l-6.017 2.607a2.153 2.153 0 01-1.714 0z"/></g><g id="flag_russia"><path d="M24 9.38H0V4.551c0-.229.185-.414.414-.414h23.172c.229 0 .414.185.414.414v4.827z" fill="#F5F5F5"/><path d="M23.586 19.862H.414A.414.414 0 010 19.448v-4.827h24v4.827a.414.414 0 01-.414.414z" fill="#FF4B55"/><path d="M24 9.38H0v5.24h24V9.38z" fill="#41479B"/></g><g id="icon_my"><path d="M11 2.2c1.706 0 3.094 1.422 3.094 3.128A3.097 3.097 0 0111 8.422a3.097 3.097 0 01-3.094-3.094C7.906 3.622 9.294 2.2 11 2.2zm-7.769 9.316c.57 0 1.032.461 1.032 1.03v2.063a1.031 1.031 0 01-2.063 0v-2.062c0-.57.462-1.031 1.031-1.031zm15.538 0c.57 0 1.031.461 1.031 1.03v2.063a1.031 1.031 0 01-2.063 0v-2.062c0-.57.462-1.031 1.032-1.031z"/><path d="M18.253 9.453c.285 0 .516.23.516.516v.515a2.065 2.065 0 00-2.063 2.063v2.062c0 1.138.925 2.063 2.063 2.063v.515c0 .285-.23.516-.516.516-1.952 0-3.616.456-5.15 1.202-.71.346-1.587-.139-1.587-.928v-6.274c0-.358.19-.692.509-.856 1.846-.95 3.84-1.394 6.228-1.394zM3.231 10.484V9.97c0-.285.23-.516.516-.516 2.388 0 4.382.444 6.228 1.394a.956.956 0 01.51.856v6.274c0 .79-.878 1.274-1.588.928-1.534-.746-3.198-1.202-5.15-1.202a.515.515 0 01-.516-.515v-.516a2.065 2.065 0 002.063-2.063v-2.062a2.065 2.065 0 00-2.063-2.063z"/></g><g id="icon_date"><circle cx="10.798" cy="11.072" r="10.298" fill="#171C1E" stroke="#fff"/><path fill-rule="evenodd" clip-rule="evenodd" d="M13.133 6.185v.397c1.458.114 2.421 1.108 2.423 2.632l.006 4.46c.002 1.66-1.042 2.683-2.715 2.685l-4.086.005c-1.662.003-2.719-1.044-2.721-2.71l-.006-4.407c-.002-1.534.927-2.525 2.385-2.658v-.397c0-.233.172-.408.402-.408.23 0 .402.174.403.407v.37l3.104-.004v-.37c0-.233.172-.408.402-.408.224 0 .402.174.402.406zM6.84 9.41l7.912-.01v-.185c-.023-1.138-.594-1.735-1.618-1.824V7.8a.402.402 0 01-.401.408.398.398 0 01-.403-.407V7.37l-3.105.005v.428a.398.398 0 01-.401.407.398.398 0 01-.403-.406v-.408c-1.02.102-1.584.701-1.582 1.849v.164zm5.673 2.405v.005a.43.43 0 10.862-.028.439.439 0 00-.434-.422.438.438 0 00-.428.445zm.432 2.375a.449.449 0 01-.435-.449.441.441 0 01.428-.45h.005c.246 0 .445.2.445.448 0 .25-.198.45-.443.451zm-2.585-2.367c.01.244.21.434.45.423a.436.436 0 00.412-.456.432.432 0 00-.434-.422.451.451 0 00-.428.455zm.452 2.343a.435.435 0 01-.45-.422c0-.244.187-.445.428-.456.235 0 .429.185.434.422a.435.435 0 01-.412.456zm-2.605-2.324c.01.243.21.433.45.422a.435.435 0 00.412-.455.431.431 0 00-.435-.423.451.451 0 00-.427.456zm.452 2.327a.435.435 0 01-.45-.423.45.45 0 01.428-.455c.235 0 .429.184.434.422a.435.435 0 01-.412.456z" fill="#fff"/></g><g id="icon_search"><path d="M4.5 9.502C4.5 6.453 6.943 4 9.933 4c1.438 0 2.819.577 3.838 1.608a5.538 5.538 0 011.595 3.894c0 3.05-2.442 5.503-5.433 5.503-2.99 0-5.433-2.454-5.433-5.503z" stroke="#39D7D7" stroke-width="2"/><path d="M18.176 16.287l-1.916-1.546a.74.74 0 00-1.045 0 .811.811 0 000 1.143l1.59 1.822a.985.985 0 001.404 0 1.01 1.01 0 000-1.419h-.033z" fill="#39D7D7"/></g><g id="icon_book"><g clip-path="url(#clip0)"><path d="M2.926 1.534A.463.463 0 002.462 2v6.976c0 .256.208.464.465.465 1.083.003 2.897.228 4.149 1.538v-7.3a.446.446 0 00-.064-.236c-1.026-1.655-3-1.906-4.086-1.909zm9.487 7.441V1.999a.463.463 0 00-.463-.465c-1.086.003-3.06.254-4.087 1.908a.446.446 0 00-.064.236v7.3c1.252-1.31 3.066-1.535 4.148-1.538.257 0 .466-.21.466-.465z"/><path d="M13.473 3.143h-.338v5.832a1.19 1.19 0 01-1.186 1.187c-.918.002-2.433.182-3.505 1.197 1.855-.454 3.81-.159 4.925.095a.464.464 0 00.569-.453V3.608a.466.466 0 00-.465-.465zM1.74 8.975V3.143h-.337a.466.466 0 00-.465.465V11a.462.462 0 00.57.453c1.114-.254 3.069-.55 4.924-.095-1.073-1.015-2.587-1.195-3.505-1.197A1.19 1.19 0 011.74 8.975z"/></g><defs><clipPath id="clip0"><path fill="#fff" transform="translate(.938)" d="M0 0h13v13H0z"/></clipPath></defs></g><g id="icon_play"><circle cx="21.438" cy="16.5" r="9.5"/><path d="M24.642 16.24a.3.3 0 010 .52l-4.581 2.644a.3.3 0 01-.45-.26v-5.289a.3.3 0 01.45-.26l4.58 2.645z" fill="#fff"/></g><g id="icon_replay"><circle cx="21.438" cy="16.5" r="9.5"/><path d="M24.642 16.24a.3.3 0 010 .52l-4.581 2.644a.3.3 0 01-.45-.26v-5.289a.3.3 0 01.45-.26l4.58 2.645z"/></g><g id="icon_pause"><circle cx="12.938" cy="12" r="12" fill="#FCC946"/><path d="M10.938 10v4.5m5-4.5v4.5" stroke="#000" stroke-width="2" stroke-linecap="round" stroke-linejoin="round"/></g><g id="icon_done"><path d="M24.938 12c0 6.627-5.373 12-12 12-6.628 0-12-5.373-12-12s5.372-12 12-12c6.627 0 12 5.373 12 12z" fill="#68CD44"/><path d="M8.938 11.5l3.79 3.5 5.21-6" stroke="#000" stroke-width="2" stroke-linecap="round" stroke-linejoin="round"/></g><g id="icon_process"><circle cx="17.5" cy="17" r="17" fill="#DEDEDE"/><path d="M11.834 16.292l5.368 4.958 7.382-8.5" stroke="#9C9C9C" stroke-width="2.167" stroke-linecap="round" stroke-linejoin="round"/></g><g id="icon_arrow"><ellipse rx="16" ry="15.675" transform="matrix(-1 0 0 1 16.5 15.995)" fill="#D7E5FF"/><path d="M16.55 14.151h-5.353c-1.042 0-1.894.835-1.894 1.856 0 1.021.852 1.856 1.894 1.856h5.353v3.323c0 .835 1.023 1.244 1.61.65l5.267-5.18a.94.94 0 000-1.317L18.16 10.16c-.587-.594-1.61-.167-1.61.65v3.341z" fill="#363636"/></g><g id="icon_lock"><path class="cls-1" d="M24.42 11.16A6.59 6.59 0 0131 17.73V28a6.57 6.57 0 01-6.58 6.56H11.58A6.57 6.57 0 015 28V17.73a6.57 6.57 0 016.58-6.57zm-7.86 11a1.38 1.38 0 012.75 0v1.37a2 2 0 010 .35 2.74 2.74 0 11-4.08 2.4 2.72 2.72 0 011.42-2.4 1.34 1.34 0 01-.05-.35z"/><path class="cls-2" d="M26.77 17H9.22V9.21a8.78 8.78 0 0117.55 0zm-14.62-2.91h11.7V9.21a5.85 5.85 0 00-11.7 0z"/></g><g id="icon_exit"><path fill-rule="evenodd" clip-rule="evenodd" d="M2.77 2.26A3.71 3.71 0 000 5.85v13.63a3.71 3.71 0 002.69 3.567l8.163 2.332c2.37.678 4.73-1.102 4.73-3.567v-18.1a3.71 3.71 0 00-4.65-3.589L2.77 2.261zm9.102 8.517a.742.742 0 00-.742.742v2.968c0 .41.332.742.742.742h.742c.41 0 .742-.332.742-.742V11.52a.742.742 0 00-.742-.742h-.742z"/><path d="M22.26 6.936c0-.847-.48-1.62-1.239-1.995l-1.484-.735c-1.48-.732-3.213.344-3.213 1.995v12.717c0 1.685 1.8 2.76 3.283 1.958l1.484-.801a2.226 2.226 0 001.169-1.959V6.936z"/></g><g id="icon_age-limit"><circle cx="11.5" cy="11.5" r="10.5" stroke="#C4C4C4" stroke-width="2"/><path fill-rule="evenodd" clip-rule="evenodd" d="M12.197 11.784c0 2.86-.883 5.159-3.603 5.159-2.719 0-3.616-2.299-3.616-5.159 0-2.859.897-5.13 3.616-5.13 2.72 0 3.603 2.271 3.603 5.13zm-5.355 0c0 1.963.393 3.505 1.752 3.505 1.36 0 1.753-1.542 1.753-3.505 0-1.934-.393-3.462-1.753-3.462-1.36 0-1.752 1.528-1.752 3.463zm8.647.498h-2.1v-.958h2.1V9.03h.997v2.294h2.09v.958h-2.09v2.285h-.997v-2.285z" fill="#C9C9C9"/></g><path d="M8.125 1.25h3.75a.625.625 0 100-1.25h-3.75a.625.625 0 000 1.25zM10 2.5a7.5 7.5 0 107.5 7.5A7.508 7.508 0 0010 2.5zm3.536 4.848l-3.094 3.094a.625.625 0 01-.884-.884l3.094-3.094a.626.626 0 011.019.682.624.624 0 01-.135.202z" id="icon_timer" fill="#39D7D7"/><path fill-rule="evenodd" clip-rule="evenodd" d="M16.759 7.934l2.681 6.513c.086.21.332.311.541.225l1.845-.76a.417.417 0 00.225-.54L19.37 6.859a.418.418 0 00-.542-.225l-1.844.76a.418.418 0 00-.225.54zm-10.703 0a.418.418 0 00-.225-.542l-1.844-.759a.418.418 0 00-.542.225L.764 13.372a.418.418 0 00.225.54l1.845.76a.419.419 0 00.54-.225c.893-2.166 1.795-4.356 2.682-6.513zM11.634 9c-1.097-1.16-1.9-.99-3.407-.668-.507.109-1.09.233-1.787.335l-1.77 4.298c.541.712.988 1.365 1.391 1.955.749 1.094 1.347 1.969 2.085 2.543.348.272.767.47 1.23.607l-.957-1.26a.316.316 0 01.504-.382l1.392 1.83c.326.04.663.056 1.005.052l.114-.002-1.83-2.408a.316.316 0 11.504-.382l2.083 2.74c.378-.04.754-.101 1.118-.181l-2.424-3.158a.317.317 0 01.504-.385l2.588 3.372a8.52 8.52 0 001.048-.38l-4.035-5.307c-.208.034-.418.073-.627.1-.237.453-.625.797-1.042 1.032-.471.263-1.703.695-2.061.057-.248-.44.536-1.732.775-2.197.809-1.573 1.914-2.012 3.6-2.21zm3.962 8.23c1.152-.744 2.034-3.06 2.541-4.283l-1.538-3.735a48.947 48.947 0 01-3.125.276C10.952 9.652 9.5 9.746 8.6 11.5c-.186.364-.726 1.294-.785 1.581.635.225 1.797-.575 2.044-1.176a.317.317 0 01.259-.194c.33-.037.65-.108.98-.145a.317.317 0 01.302.145c1.303 1.7 2.439 1.393 3.988.217a.316.316 0 01.383.504c-.882.67-1.69 1.097-2.492 1.104a2.24 2.24 0 01-.537-.06l2.855 3.755z" fill="#fff" id="icon_partners"/><path fill-rule="evenodd" clip-rule="evenodd" d="M9.13 9.874c3.157 3.157 3.874-.495 5.884 1.514 1.939 1.938 3.053 2.326.597 4.782-.308.247-2.262 3.221-9.132-3.646C-.39 5.656 2.583 3.699 2.83 3.39c2.461-2.46 2.843-1.34 4.781.598 2.011 2.01-1.64 2.729 1.518 5.886z" id="icon_phone"/><path d="M12 4.5C7 4.5 2.73 7.61 1 12c1.73 4.39 6 7.5 11 7.5s9.27-3.11 11-7.5c-1.73-4.39-6-7.5-11-7.5zM12 17c-2.76 0-5-2.24-5-5s2.24-5 5-5 5 2.24 5 5-2.24 5-5 5zm0-8c-1.66 0-3 1.34-3 3s1.34 3 3 3 3-1.34 3-3-1.34-3-3-3z" id="icon_eye"/><path d="M12 6.5c2.76 0 5 2.24 5 5 0 .51-.1 1-.24 1.46l3.06 3.06c1.39-1.23 2.49-2.77 3.18-4.53C21.27 7.11 17 4 12 4c-1.27 0-2.49.2-3.64.57l2.17 2.17c.47-.14.96-.24 1.47-.24zM2.71 3.16a.996.996 0 000 1.41l1.97 1.97A11.892 11.892 0 001 11.5C2.73 15.89 7 19 12 19c1.52 0 2.97-.3 4.31-.82l2.72 2.72a.996.996 0 101.41-1.41L4.13 3.16c-.39-.39-1.03-.39-1.42 0zM12 16.5c-2.76 0-5-2.24-5-5 0-.77.18-1.5.49-2.14l1.57 1.57c-.03.18-.06.37-.06.57 0 1.66 1.34 3 3 3 .2 0 .38-.03.57-.07L14.14 16c-.65.32-1.37.5-2.14.5zm2.97-5.33a2.97 2.97 0 00-2.64-2.64l2.64 2.64z" id="icon_eye_closed"/><path fill-rule="evenodd" clip-rule="evenodd" d="M12.944 10.297h2.538a.693.693 0 00.687-.702.688.688 0 00-.687-.701h-2.537a.688.688 0 00-.688.701c0 .384.303.702.688.702zm5.551-4.863c.559 0 .925.196 1.292.626.366.43.43 1.048.348 1.608l-.87 6.137c-.165 1.18-1.155 2.049-2.318 2.049H6.954c-1.218 0-2.226-.954-2.326-2.188L3.785 3.468l-1.383-.243A.703.703 0 012.64 1.84l2.185.336a.7.7 0 01.567.636l.174 2.096c.028.3.266.525.56.525h12.37zM6.807 17.332c-.769 0-1.392.636-1.392 1.422 0 .777.623 1.413 1.392 1.413.76 0 1.383-.636 1.383-1.413 0-.786-.622-1.422-1.383-1.422zm10.305 0c-.77 0-1.392.636-1.392 1.422 0 .777.623 1.413 1.392 1.413.76 0 1.383-.636 1.383-1.413 0-.786-.623-1.422-1.383-1.422z" id="icon_courses"/><path d="M8.294 11.341h11.01c.55 0 1 .45 1 1s-.45 1-1 1H8.294v1.79c0 .45-.54.67-.85.35l-2.78-2.79a.513.513 0 010-.71l2.78-2.79c.31-.32.85-.09.85.35v1.8z" fill="#195AFF" id="icon_back"/><path d="M15.29 11.71L12.7 14.3a.996.996 0 01-1.41 0L8.7 11.71c-.63-.63-.18-1.71.71-1.71h5.18c.89 0 1.33 1.08.7 1.71z" id="icon_dropdown"/><path d="M26.535 12.414c.258-.27.399-.598.399-.973 0-.785-.61-1.394-1.383-1.394-.387 0-.738.152-1.008.422l-8.016 8.203-7.992-8.203a1.43 1.43 0 00-1.008-.422c-.773 0-1.382.61-1.382 1.394 0 .375.14.704.398.961l8.906 9.118c.305.328.68.492 1.09.492.41 0 .762-.164 1.078-.48l8.918-9.118z" id="icon_arrow-down"/><path fill-rule="evenodd" clip-rule="evenodd" d="M4.839.005h12.506a1.19 1.19 0 011.19 1.209V20.71c0 .66-.359 1.209-1.02 1.209-.699 0-1.058-.548-1.058-1.228v-2.06c0-.056-.038-.094-.094-.075l-11.6 3.363h-.019a1.133 1.133 0 01-1.114-1.134V10.452H1.174s-1.039.075-1.039-.737c0-.812 1.039-.737 1.039-.737H3.63v1.417h4.59L5.576 13.04a.741.741 0 000 1.039.741.741 0 001.039 0l3.268-3.269.019.02.585-.586a.65.65 0 000-.907l-.585-.586-.02.02-3.267-3.269a.741.741 0 00-1.04 0 .741.741 0 000 1.04l2.419 2.436H3.63V1.214c0-.661.548-1.21 1.209-1.21zm9.068 9.918c0 .566.32 1.039.718 1.039.396 0 .717-.473.717-1.04 0-.566-.32-1.038-.717-1.038-.397 0-.718.472-.718 1.039z" fill="currentColor" id="icon_door"/><path fill-rule="evenodd" clip-rule="evenodd" d="M13.41 2.375a4.003 4.003 0 014.007 3.998v6.254a4.004 4.004 0 01-4.007 3.998H5.59a4.003 4.003 0 01-4.006-3.998V6.373a3.998 3.998 0 014.005-3.998h7.821zm1.26 5.177l.063-.063a.612.612 0 00-.008-.792.666.666 0 00-.42-.205.602.602 0 00-.443.158l-3.57 2.85a1.24 1.24 0 01-1.583 0L5.146 6.65a.605.605 0 00-.848.847l.104.103 3.602 2.81a2.489 2.489 0 003.095 0l3.57-2.858z" id="icon_mail"/><path d="M21.863 10.39l-2.165-2.166a.378.378 0 00-.283-.11h-8.473a5.813 5.813 0 00-5.1-3.028 5.796 5.796 0 00-5.821 5.806 5.82 5.82 0 005.821 5.821 5.844 5.844 0 005.069-2.95h1.851c.283 0 .77-.36 1.099-.643a.638.638 0 01.8-.016l.784.596a.382.382 0 00.487-.062l.612-.612a.378.378 0 01.282-.11h1.193c.11 0 .204.047.282.11l.455.455a.398.398 0 00.565 0l2.526-2.527a.385.385 0 00.016-.565zM4.556 13.34a2.45 2.45 0 01-2.448-2.448 2.451 2.451 0 012.448-2.448 2.451 2.451 0 012.448 2.448 2.45 2.45 0 01-2.448 2.447z" fill="currentColor" id="icon_key"/></defs></svg>